<svg xmlns="http://www.w3.org/2000/svg" viewBox="0 0 200 200">
  <!-- Top-Left Piece (Blue) -->
  <path d="M 0 0 L 100 0 L 100 30 Q 100 40 90 40 L 90 50 Q 90 60 80 60 L 80 70 Q 80 80 70 80 L 70 100 L 0 100 Z" 
        fill="#3B82F6" stroke="#1E40AF" stroke-width="2"/>
  
  <!-- Top-Right Piece (Red) -->
  <path d="M 100 0 L 200 0 L 200 100 L 100 100 L 100 90 Q 100 80 110 80 L 110 70 Q 110 60 120 60 L 120 50 Q 120 40 130 40 L 130 30 Q 130 20 120 20 L 120 10 Q 120 0 100 0 Z" 
        fill="#EF4444" stroke="#DC2626" stroke-width="2"/>
  
  <!-- Bottom-Left Piece (Orange) -->
  <path d="M 0 100 L 70 100 L 70 110 Q 70 120 60 120 L 60 130 Q 60 140 50 140 L 50 150 Q 50 160 40 160 L 40 170 Q 40 180 30 180 L 30 190 Q 30 200 20 200 L 20 200 L 0 200 Z" 
        fill="#F97316" stroke="#EA580C" stroke-width="2"/>
  
  <!-- Bottom-Right Piece (Green) -->
  <path d="M 100 100 L 200 100 L 200 200 L 20 200 L 20 190 Q 20 180 30 180 L 30 170 Q 30 160 40 160 L 40 150 Q 40 140 50 140 L 50 130 Q 50 120 60 120 L 60 110 Q 60 100 70 110 L 70 100 L 100 100 Z" 
        fill="#10B981" stroke="#059669" stroke-width="2"/>
</svg>
